<svg xmlns="http://www.w3.org/2000/svg" viewBox="0 0 512 512"><defs><linearGradient id="g" x1="0" y1="0" x2="1" y2="1"><stop offset="0" stop-color="#fff6a0"/><stop offset=".38" stop-color="#ffd21a"/><stop offset="1" stop-color="#d88300"/></linearGradient><linearGradient id="lens" x1="0" y1="0" x2="1" y2="1"><stop offset="0" stop-color="#fff"/><stop offset=".25" stop-color="#777"/><stop offset=".55" stop-color="#17191c"/><stop offset="1" stop-color="#000"/></linearGradient></defs><path d="M72 190h210l58-62h77c28 0 51 23 51 51v105c-39-34-82-51-129-51-71 0-130 30-171 88H72c-29 0-52-23-52-52v-27c0-29 23-52 52-52z" fill="url(#g)" stroke="#ffdf45" stroke-width="8"/><path d="M78 216h184l-37 37H78c-15 0-27 12-27 27v12c0 15 12 27 27 27h74l-31 37H78c-36 0-65-29-65-65v-13c0-36 29-65 65-65z" fill="#090909" opacity=".9"/><rect x="89" y="252" width="76" height="24" rx="10" fill="url(#g)" stroke="#ffe36b" stroke-width="5"/><circle cx="346" cy="319" r="119" fill="#050505" stroke="url(#g)" stroke-width="16"/><circle cx="346" cy="319" r="82" fill="#101216" stroke="#25282d" stroke-width="12"/><circle cx="346" cy="319" r="58" fill="url(#lens)" stroke="#d7dbe0" stroke-width="5"/><ellipse cx="325" cy="295" rx="23" ry="13" fill="#fff" opacity=".9" transform="rotate(-25 325 295)"/><circle cx="366" cy="339" r="10" fill="#fff" opacity=".8"/></svg>
